<?xml version="1.0" encoding="UTF-8"?>
<svg xmlns="http://www.w3.org/2000/svg" version="1.1" viewBox="0 0 90 83.82" fill="#384c02">
  <path d="M89.97,47.03c.05-.54.21-2.99-1.54-5.21-1.61-2.05-3.79-2.55-4.36-2.66.3-.53,1.08-2.1.81-4.17-.34-2.6-2.11-4.08-2.51-4.4-.41-.62-1.02-1.39-1.89-2.12-1.48-1.25-3.01-1.8-3.94-2.05,1.15-1.38,3.4-4.46,4.28-9.03.87-4.47,0-8.09-.54-9.81-1.98.08-5.21.47-8.76,2.16-2.67,1.27-4.61,2.85-5.87,4.05.04-.77.06-3.08-1.47-5.33-.32-.46-2.21-3.14-5.79-3.63-2.99-.41-5.21.97-5.79,1.35.21-.55.63-1.87,0-2.9-.35-.57-.89-.82-2.62-1.47-.99-.37-2.26-.82-3.74-1.31-.47-.2-2.4-.95-4.63-.15-.5.18-2.48.89-3.44,3.01-.9,2-.26,3.85-.12,4.25-.34-.54-1.43-2.14-3.55-2.9-2.67-.95-4.98.15-5.6.46-2.25,1.12-3.25,3.03-3.55,3.67-1.06-.85-2.86-2.07-5.37-2.86-2.29-.72-4.29-.79-5.6-.73.59,2.85.86,5.2,1,6.91.14,1.72.16,3.01-.04,4.52-.13.96-.31,1.75-.46,2.32-1.15-.25-2.76-.46-4.67-.31-2.27.18-4.07.8-5.25,1.31.77.5,1.88,1.37,2.62,2.78.95,1.81.36,2.69,1.16,5.75.54,2.08,1.34,3.65,1.85,4.67.64,1.27,1.28,2.3,1.81,3.09-.39.12-4.76,1.58-5.4,4.98-.4,2.08.78,3.9,2.2,6.1,1.36,2.1,2.87,3.53,3.94,4.4-1.33-.49-2.49-.9-3.44-1.24-2.38-.84-2.96-1-3.78-1.04-.9-.05-2.06-.11-3.16.54-1.51.88-1.98,2.54-2.36,3.82-.49,1.72-.43,3.29-.23,4.48-.06.24-.8,3.3,1.2,5.44,1.27,1.36,2.94,1.6,3.09,1.62,1.07.14,1.94-.11,2.39-.27-.34.25-.83.62-1.39,1.12-.81.72-1.22,1.07-1.47,1.5-.7,1.22-.17,2.73-.04,3.13.57,1.65,1.86,2.49,3.59,3.63,1.88,1.23,3.48,1.75,5.02,2.24,1.85.59,2.8.89,3.98.69.48-.08,2.13-.37,3.36-1.85.97-1.17,1.14-2.44,1.18-2.95,0,.6.07,1.47.31,2.47.28,1.17.51,2.11,1.18,2.83,1.09,1.18,2.79,1.18,4.48,1.18.99,0,2.62-.12,4.53-.88.44-.01,1.24-.1,2.11-.57.68-.37,1.13-.82,1.39-1.13.24.01.6.01,1.03-.05.73-.11,1.17-.35,1.49-.46.81-.3,1.52-.11,2.62.1,2.7.53,4.28.84,6.07.72,1.71-.12,2.56-.17,2.73-.21.66-.13,1.2-.29,1.8-.05.52.21.84.62,1.03.93.19-.41.38-.82.57-1.24-.1-.54-.24-1.35-.36-2.34-.31-2.55-.14-3.21-.33-4.76-.2-1.56-.47-3.66-1.93-5.43-.5-.61-1.67-1.82-3.91-2.5.31-.47.68-1.14.95-1.98.32-.97.4-1.83.41-2.44.19-.35,1.49-2.88.33-5.74-1.08-2.67-3.48-3.64-4.19-3.89-2.03-.71-3.8-.29-4.45-.1.51-.74,1.21-2,1.39-3.65.21-1.93-.4-3.41-.88-4.58-.37-.9-1-2.16-2.11-3.47.61-.42,1.26-.89,1.93-1.44.63-.52,1.19-1.03,1.7-1.52-.14.33-1.32,3.17.21,5.64,1.03,1.67,2.74,2.25,3.4,2.47,1.69.57,3.19.35,4.84.1,1.26-.19,2.27-.48,2.96-.72.02.46.1,1.13.39,1.88.23.6.53,1.06.77,1.39-.6.11-2.27.48-3.53,1.96-1.03,1.2-1.24,2.5-1.39,3.45-.34,2.12.2,3.78.54,4.79.53,1.57.95,2.8,2.19,3.47,1.21.66,2.48.39,2.62.36.99-.22,1.62-.8,1.88-1.06-.09-.14-.17-.28-.26-.41-.16.12-.92.67-1.78.46-.23-.06-.63-.21-1.11-.8-.49-.6-.74-1.25-1.16-3.68-.27-1.53-.36-2.38-.39-3.29-.04-1.26.07-1.8.33-2.29.35-.66.86-1.04,1.16-1.26.73-.54,1.46-.74,1.88-.82.44.51,1.11,1.1,1.93,1.11.43,0,.64-.16,1.11-.23.97-.15,1.7.28,2.39.59,1.77.79,2.01.25,4.68,1.08.69.21,1.71.57,2.91,1.16-.04.19-.08.4-.1.65-.02.27-.02.51,0,.71-.56.23-1.39.6-2.32,1.16-1.36.82-2.22,1.6-2.78,2.08-3.06,2.66-3.65,2.17-5.87,4.32-1.47,1.43-2.59,2.52-3.09,4.4-.15.58-.72,2.87.54,5.1.54.96,1.23,1.58,1.7,1.93-.44.48-1.05,1.26-1.47,2.36-.51,1.32-.49,2.44-.46,3.78.03,1.56.29,2.85.46,3.67.23,1.08.29.99.42,1.81.23,1.43.1,2.07.54,2.93.28.54.65.91.89,1.12.44-.33,1.12-.81,2.01-1.27,1.4-.74,2.2-.86,3.28-1.27,2.24-.85,3.72-2.16,4.59-2.93.1-.09,0,0,3.13-3.51.52-.58.97-1.09,1.39-1.89.53-1,.72-1.94.81-2.59,1.16.14,2.9.2,4.9-.31,1.1-.28,2.02-.67,2.74-1.04.7-.24,1.8-.72,2.89-1.66.73-.63,1.98-1.71,2.43-3.55.48-1.94-.22-3.57-.46-4.13-.17-.4-.46-.98-2.59-3.4-.92-1.05-1.71-1.9-2.28-2.51.19.15,3.38,2.6,6.68,1.31,2.06-.81,3.04-2.63,3.44-3.36,1.07-1.98,1.03-3.86.97-4.67ZM78.97,29.52c1.22.95,1.96,1.53,2.52,2.62.18.35.64,1.32.67,2.65,0,.33.01,1.44-.54,2.7-.48,1.11-1.13,1.74-2.34,2.91-.73.7-1.44,1.26-2.83,2.34-1.49,1.16-2.64,2.06-3.27,2.55-.34.1-.82.19-1.39.19-.35,0-.84-.04-1.39-.19-.14-1.99-.22-3.62-.27-4.75-.14-2.98-.07-2.87-.19-4.88-.08-1.3-.04-2.61-.18-3.91-.1-.94-.21-1.57.08-2.37.09-.24.48-1.32,1.49-1.78.35-.15.61-.17,2.55,0,1.3.11,1.95.17,2.11.21,1.18.29,1.93.88,2.99,1.7ZM73.41,49.58c-.03.06-.6,1.36-2.01,1.62-.21.04-1.43.26-2.16-.58-.77-.88-.29-2.15-.23-2.32.04-.09.49-1.25,1.74-1.62.69-.21,1.9-.26,2.55.58.71.91.19,2.15.12,2.32ZM77.61,22.83c-.76,1.56-1.72,2.64-2.39,3.29-1.54-.45-2.78-.35-3.47-.23-.77.13-1.57.26-2.29.88-.17.14-.71.63-1.31,2.44-.28.84-.59,2.04-.72,3.55-.58-.44-1.2-.89-1.88-1.34-.65-.44-1.29-.83-1.9-1.18.22-.17.5-.41.77-.75.29-.36.47-.71.59-.98.23.36.46.72.69,1.08.39-.31.77-.62,1.16-.93-.11-.44-.19-1.03-.1-1.7.18-1.38.96-2.25,1.18-2.5.44-.48.85-.73,1.26-.98,1.62-.99,3.22-2.03,4.86-2.99,1.42-.83,1.96-1.15,2.88-1.26.72-.09,1.32,0,1.72.08-.12.87-.39,2.13-1.06,3.5ZM47.93,20.97c.86-.22,2.09-.49,3.59-.62.8-.07,2-.03,4.36.04.85.03,2.69.09,4.98.42,1,.15,1.53.26,2.08.66,1.18.83,1.47,2.21,1.54,2.59.36,1.74-.36,3.19-.77,4.01-.43.85-.92,1.47-1.27,1.85-1.18-.22-2.07-.03-2.55.12-.89.27-1.54.75-2.2,1.24-.56.42-1.05.87-1.2,1-.3.28-.55.54-.73.73-.56-1.78-1.31-3.12-1.89-4.01-1.15-1.76-2.36-2.87-3.28-3.71-1.18-1.06-2.27-1.83-3.09-2.35.13-.24.3-.61.39-1.08.06-.35.06-.66.04-.89ZM64.92,17.63c.45-.91.76-1.75.98-2.47.43-.54,1.09-1.27,2.01-2.01.41-.33,1.74-1.36,4.89-2.52,1.46-.54,3.46-1.16,5.92-1.6.29,1.39.43,2.59.49,3.53.07,1.03.16,2.47-.1,4.32-.09.63-.2,1.15-.28,1.52-.34-.08-.85-.17-1.47-.15-1.5.05-2.58.71-3.35,1.18-1.55.95-3.24,1.94-5.22,3.11.87-1.11,1.95-2.32,3.27-3.53,2.28-2.1,4.55-3.53,6.41-4.5-.18-.33-.36-.67-.54-1-1.27.71-2.65,1.59-4.09,2.65-1.62,1.2-3,2.41-4.14,3.53.1-.81.31-1.88.8-3.06.61-1.48,1.4-2.57,2.01-3.27-.26-.23-.51-.46-.77-.69-1.22,1.46-1.83,2.76-2.16,3.68-.79,2.17-.98,3.5-.98,3.5-.08.59-.13,1.21-.51,1.98-.28.57-.51.74-.93,1.39-.28.44-.65,1.1-.95,2.01.09-.4.37-1.84-.41-3.37-.66-1.3-1.71-1.93-2.11-2.14.41-.57.85-1.26,1.26-2.09ZM53.65,7.46c.47-.32,2.03-1.36,4.25-1.23.51.03,2.27.19,3.86,1.54,1.96,1.67,2.23,3.93,2.32,4.63.07.59.16,1.44-.15,2.47-.07.24-.56,1.75-2.01,2.78-.31.22-1.21.81-4.56,1-2.52.15-3.06-.12-4.94,0-1.16.08-2.84.3-4.86,1-.1-.15-.25-.33-.46-.51-.22-.19-.43-.31-.59-.39.47-.75,1.17-1.89,1.96-3.32,1.12-2.04,1.26-2.54,2.16-4.04,1.26-2.1,1.89-3.15,3.04-3.94ZM39.67,5.99c.11-.66.4-2.37,1.78-3.32,1.03-.72,2.25-.59,4.63-.31,2.68.31,4.48.53,5.17,1.85.39.75.27,1.53.15,2.24-.22,1.38-.81,1.8-2.08,3.94-.78,1.32-.51,1.1-2.16,4.17-.67,1.25-1.24,2.27-1.62,2.93h-1.85c-.35-.46-.81-1.13-1.27-1.97-.53-.96-.91-1.89-1.51-3.82-.95-3.06-1.43-4.59-1.24-5.71ZM46.08,21.05c-.05.9-.86,1.64-1.78,1.54-.94-.09-1.56-1.02-1.43-1.89.11-.75.77-1.37,1.54-1.39.91-.02,1.71.79,1.66,1.74ZM25.51,12.63c.32-1.79,1.22-2.93,2.05-3.98.76-.96,1.35-1.69,2.35-1.93.84-.2,1.54.03,2.47.35.82.28,1.14.52,3.36,1.89,1.97,1.22,2.15,1.3,2.55,1.7.99.99,1.45,2.05,1.66,2.55.58,1.37.39,1.88.93,3.44.37,1.08.83,1.91,1.16,2.43-.13.27-.26.54-.39.81-.68,0-1.74,0-3.05.04-2.64.07-2.9.18-4.05.12-1.99-.11-3.47-.55-4.48-.85-2-.6-3.01-.91-3.67-1.66-1.47-1.67-1.02-4.15-.89-4.9ZM20.99,7.77c1.69.7,2.85,1.67,3.51,2.32-.33.85-.68,2-.85,3.4-.18,1.49-.09,2.77.04,3.71.43.56,1.24,1.48,2.55,2.2,1.41.78,2.72.96,3.44,1-.51.4-1.06.86-1.62,1.39-.59.56-1.1,1.11-1.54,1.62-1.23-1.01-3.09-2.3-5.6-3.24-1.61-.61-3.08-.92-4.28-1.08.38-1.58.74-3.72.69-6.25-.04-2.38-.41-4.39-.81-5.91.96-.02,2.62.08,4.48.85ZM11.8,32.13c-.23-.68-.28-1.15-.39-2.01-.14-1.11-.35-2.21-.5-3.32-.18-1.27-.76-3.23-2.62-6.14.72-.24,1.85-.55,3.24-.58,1.03-.02,1.64.11,3.4.31,1.92.22,2.91.25,3.47.31,1.63.17,4.1.99,7.64,4.02-.29.42-.66,1.1-.58,1.89.02.22.08.43.69,1.62.83,1.6.94,1.6,1.08,2.12.22.84.01,1.09.31,1.78.26.59.66.99.97,1.24-.64.18-1.98.66-3.2,1.89-1.35,1.37-1.79,2.9-1.93,3.55-.18-.24-.36-.49-.54-.73.5-1.53,1.03-3.72,1.12-6.37.09-2.84-.37-5.18-.81-6.79-.33.22-.67.44-1,.66.24,1.01.46,2.15.62,3.4.15,1.22.22,2.34.23,3.36-.21-.22-.41-.44-.62-.66-.22-1.16-.64-2.67-1.43-4.32-.9-1.87-1.97-3.26-2.82-4.21-.32.26-.64.51-.97.77.57.62,1.21,1.43,1.81,2.43.68,1.13,1.13,2.18,1.43,3.05-1.08-1.05-2.29-2.14-3.63-3.24-1.36-1.12-2.68-2.1-3.94-2.97-.21.33-.41.67-.62,1,1.46,1.03,3.05,2.27,4.67,3.74,1.45,1.31,2.7,2.6,3.78,3.82-.51-.19-1.41-.45-2.55-.39-1.02.06-1.81.36-2.28.58.12.28.23.57.35.85.53-.17,1.35-.37,2.35-.35,1.25.03,2.22.4,2.78.66.28.46.67,1.22.85,2.24.17.96.09,1.77,0,2.28-.61-.51-1.8-1.36-3.51-1.81-1.9-.5-3.49-.26-4.28-.08-.46-.36-.98-.85-1.47-1.51-.72-.97-1.03-1.84-1.12-2.09ZM25.04,56.29c-.02,1.27-1.19,2.09-2.05,2.36-.25.08-1.19.37-2.05-.15-.92-.57-1.26-1.8-.97-2.82.31-1.09,1.35-1.91,2.51-1.89,1.37.02,2.57,1.2,2.55,2.51ZM11.49,47.88c-1.44-1.74-2.16-2.63-2.28-3.82-.18-1.87.93-3.34,1.23-3.71.84-1.03,1.8-1.39,3.71-2.12,2.04-.78,3.19-1.22,4.67-.89.37.08,2,.45,2.82,1.81.32.53.4,1.12.54,2.28.16,1.27.16,2.29.15,3.05-.03,2.39-.22,2.92-.23,4.79,0,.83.03,1.88.15,3.09-.37.01-1.19.09-2.05.62-.85.53-1.29,1.22-1.47,1.54-.74-.56-1.79-1.38-3.01-2.43-2.55-2.21-3.8-3.68-4.24-4.21ZM4.78,62.28c-.33.06-1.02.17-1.66-.19-.29-.17-.72-.52-1.08-1.5-.64-1.75-.3-3.41-.04-4.59.38-1.74.6-2.76,1.54-3.55.95-.8,2.08-.91,2.59-.97.83-.08,1.49.03,3.01.46,2.02.57,3.46.98,5.48,1.89.85.38,1.99.94,3.28,1.7-.07.2-.13.46-.15.77-.03.5.07.9.15,1.16-2.49,1.94-4.82,3-6.41,3.59-.4.15-2.5.51-6.72,1.24ZM20.57,66.75c-.09.65-.27,2.11-.62,4.4-.29,1.91-.44,2.65-1.04,3.4-.91,1.14-2.22,1.46-2.55,1.54-1.92.46-3.55-.43-5.37-1.43-1.56-.85-2.5-1.37-3.09-2.55-.73-1.45-.42-2.92-.27-3.63.39-1.88,1.48-3.09,2.12-3.78,1-1.08,1.76-1.45,4.25-2.93,1.06-.63,2.64-1.59,4.56-2.82.37.37.88.82,1.54,1.24.79.49,1.53.76,2.09.93-1.01,2.32-1.43,4.26-1.62,5.64ZM37.43,72.08c-.34,1.39-1.53,2.19-2.9,3.09-.75.5-2.42,1.61-4.63,1.7-.73.03-1.03-.07-2.51-.04-1.06.02-1.93.1-2.51.15-.41-.21-.98-.58-1.47-1.2-.65-.83-.94-1.84-.93-4.94,0-1.59.02-3.15.35-5.6.26-1.93.59-3.5.85-4.59.24-.06.66-.18,1.08-.5.38-.29.61-.6.73-.81.59.2,1.44.51,2.43.93,1.67.71,2.87,1.21,3.98,1.97,2.47,1.69,3.57,4.01,4.56,6.1.83,1.75,1.24,2.65.97,3.75ZM45.7,62.47c3.15,1.49,4.17,3.14,4.52,4.36.43,1.5-.06,2.61.27,5.6.16,1.42.43,2.56.62,3.28-1.61.05-3.01.04-4.13,0-.87-.03-2.82-.11-5.33-.39-1.45-.16-2.68-.35-3.63-.5.45-.63,1.69-2.51,1.7-5.21,0-2.61-1.14-4.45-1.58-5.1.69.2,2.73.7,4.98-.23,1.27-.52,2.11-1.3,2.59-1.81ZM42.18,49c2.01.1,2.62.8,2.78,1,.29.38.44.84.46,2.16.02,1.01-.04,2.46-.39,4.21-.19,1.27-.47,2.29-.69,2.97-.57,1.73-.92,2.77-1.89,3.28-.38.2-.89.23-1.89.27-1.31.06-2.32.1-3.55-.15-1.61-.33-2.72-1-3.74-1.62-1.86-1.13-2.02-1.74-3.55-2.51-1.26-.63-2.42-.87-3.2-.96.11-.3.23-.75.23-1.31,0-.78-.23-1.37-.39-1.7,2.05-1.09,3.84-1.92,5.21-2.51,1.63-.7,3.03-1.19,5.83-2.16,1.9-.66,3.13-1.05,4.79-.97ZM38.13,40.23c.42.74,1.05,1.83.89,3.24-.15,1.35-.94,2.25-1.51,2.9-.37.42-1.12,1.18-3.32,2.32-2.35,1.21-3,1.11-4.71,2.01-.95.49-2.31,1.34-3.78,2.82-.22-.15-.48-.31-.77-.46-.36-.19-.7-.32-1-.42-.38-2.36-.37-4.35-.27-5.79.2-2.96.87-5.05,1.43-6.76,1.01-3.1,1.73-3.73,2.12-4.01,1.55-1.13,3.43-.91,3.9-.85,1.56.19,2.58.94,4.13,2.08,1.16.86,2.13,1.59,2.9,2.93ZM42.03,27.53c-.35.8-.79,1.29-1.58,2.16-.76.83-1.28,1.41-2.12,1.97-1,.66-1.85.91-3.01,1.24-1.87.53-3.07.87-4.4.39-.42-.15-1.37-.5-1.74-1.43-.21-.53-.14-1.03-.08-1.31-.32-.46-.79-1.24-1-2.32-.09-.45-.53-2.62.85-4.52,1.11-1.53,2.84-2.1,4.01-2.2,1.35-.12,1.44.42,3.51.35.92-.03,1.54-.16,2.66-.04.74.08,1.34.23,1.74.35-.03.26-.1,1.07.39,1.89.41.7.99,1.03,1.24,1.16,0,.54-.06,1.39-.46,2.31ZM54.15,34.71c-.43.38-.65.56-.77.73-.29.4-.16.63-.39,1.27,0,0-.21.62-.62,1.12-.36.45-.9.76-2.16,1.04-1.96.43-2.94.65-4.21.23-.34-.11-2.11-.7-2.97-2.39-.81-1.6-.42-3.41-.27-4.13.13-.6.27-.87.39-1.7.16-1.16,0-1.4.23-2.16.25-.81.55-.88.77-1.62.22-.75.14-1.43.04-1.89.27-.06.58-.14.93-.27.35-.13.65-.28.89-.42.63.42,1.42,1,2.28,1.74,1.03.89,1.86,1.76,2.51,2.51,1.46,1.69,1.03,1.67,1.93,2.47.17.15,1.49,1.32,1.89,2.24.07.15.14.38.08.62-.06.23-.23.35-.54.62ZM67.49,45.5c-.66-.38-1.22-.2-2.37-.23-.92-.02-1.68-.21-3.22-.57-1-.24-1.91-.45-3.06-.93-1.76-.72-2.6-1.45-2.83-1.65-.66-.58-1.25-1.11-1.31-1.9-.03-.43.11-.8.39-1.54.26-.68.54-1.18.72-1.49.56-.97.73-.96.98-1.62.13-.35.15-.54.36-.77.28-.31.49-.25.9-.59.26-.21.4-.42.62-.75.33-.48.4-.74.54-.98.5-.86,1.64-1.1,2.03-1.18,1.26-.27,2.27.19,2.57.33.62.29.98.67,1.7,1.42.74.77,1.26,1.31,1.62,2.16.22.51.29,1.11.44,2.32.2,1.65.08,1.76.28,2.83.11.6.25,1.29.57,2.16.13.36.26.92.51,2.03.03.15.1.46-.05.75-.01.02-.19.35-.54.44-.36.09-.69-.14-.85-.23ZM54.69,63.51c.04-.38.17-.48.23-1.12.05-.49,0-.76,0-1,0-.81.58-1.43,1.08-1.97,2.63-2.86,2.08-2.4,2.78-3.05.39-.36,1.81-1.67,3.86-3.13,1.48-1.06,2.46-1.6,2.78-1.78.78-.42,1.46-.74,1.97-.97.38.42.77.85,1.16,1.31.38.44.74.88,1.08,1.31-.46,2.92-1.29,5.25-2.01,6.87-.49,1.11-1.23,2.34-2.7,4.79-.88,1.47-1.61,2.58-2.93,3.55-1.29.94-2.05.93-2.47.85-.65-.13-1.11-.54-1.35-.81.31-.36.62-.72.93-1.08-.22-.14-.44-.28-.66-.43-.27.33-.54.67-.81,1-.17-.13-.33-.26-.5-.39.28-.31.57-.62.85-.93-.23-.14-.46-.28-.69-.43-.23.27-.46.54-.69.81-.39-.43-.69-.82-.89-1.12-.67-.98-1.08-1.58-1-2.31ZM68.78,72.12c-.54.88-.96,1.2-2.55,2.74-.93.9-.5.51-3.4,3.36-1.2,1.18-1.83,1.78-2.86,2.16-.44.16-1.16.37-1.51.46-.83.23-1.53.4-2.01.5-.3-1.2-1.06-4.39-1.27-7.33-.05-.72-.09-1.64.23-2.74.3-1.03.79-1.79,1.16-2.28.43.4,1.25,1.06,2.47,1.47,1.3.43,2.43.35,3.01.27-.74.89-1.86,2.45-2.55,4.67-.57,1.84-.62,3.45-.58,4.52.31-.13.62-.26.93-.39-.04-.91,0-2.2.39-3.67.46-1.76,1.21-3.07,1.78-3.9-.16.83-.29,1.83-.31,2.97-.02,1.13.07,2.14.19,2.97.31-.15.62-.31.93-.46-.27-1.07-.34-2.01-.35-2.7-.02-1.52.26-2.65.35-2.97.25-.97.6-1.74.89-2.28.28,0,1.1-.02,1.89-.58.67-.47.97-1.08,1.08-1.35.1.11.34.35.73.46.49.15.91.01,1.04-.04.14.24.34.52.62.81.27.29.55.5.77.66-.15.67-.45,1.64-1.08,2.67ZM82.79,60.69c.09.62.18,1.72-.19,3.01-.17.59-.48,1.69-1.43,2.62-.68.68-1.45.97-2.97,1.54-.43.16-1.26.39-2.93.85-1.88.52-2.35.62-3.01.46-.31-.07-1.17-.28-1.62-1.04-.29-.5-.23-.96-.15-1.85.09-1.09.01-2.19.08-3.28.07-1.22.12-2.44.19-3.67.07-1.32.15-3.25.15-5.67.49-.07,1.32-.25,2.2-.81.69-.44,1.15-.95,1.43-1.31,1.18,1.02,2.42,2.19,3.67,3.51,1.85,1.96,3.36,3.88,4.59,5.64ZM87.46,51.89c-1.62,1.81-4.08,1.71-4.48,1.7-.97-.04-1.7-.33-3.13-.93-1.07-.44-2.55-1.14-4.25-2.2.04-.42.07-1.14-.19-1.97-.22-.71-.57-1.23-.81-1.54,1.05-1.5,2.16-2.47,2.93-3.05,1.12-.84,3.62-2.72,6.75-2.39.78.08,2.07.22,3.09,1.2,1.32,1.27,1.31,3.12,1.31,4.56,0,1.58,0,3.25-1.23,4.63Z"/>
  <path d="M41.18,67.75c-.6-.22-1.1-.39-1.43-.5.08.33.15.67.23,1,.41.15.82.31,1.24.46.38.75.79,1.74,1.08,2.93.41,1.73.4,3.24.31,4.28.28-.03.57-.05.85-.08.1-.99.13-2.32-.15-3.86-.19-1.05-.48-1.94-.77-2.66.76.3,2.14.97,3.4,2.36,1.34,1.48,1.87,3.02,2.08,3.82.19-.18.39-.36.58-.54-.16-.8-.59-2.35-1.85-3.78-.69-.78-1.41-1.29-1.97-1.62.7.12,1.61.2,2.66.12.78-.06,1.45-.2,2.01-.35-.06-.27-.13-.54-.19-.81-1.34.25-2.48.29-3.32.27-1.19-.03-2.15-.06-3.24-.46-.3-.11-.66-.27-1.51-.58Z"/>
</svg>
